<svg xmlns="http://www.w3.org/2000/svg" width="26" height="26" fill="none"><path fill="#E5E5E5" d="M0 0h26v26H0z"/><g clip-path="url(#a)"><path fill="#fff" d="M-186-2791h1366V204H-186z"/><path fill="#444240" d="M-186-71h1366v275H-186z"/><mask id="c" fill="#fff"><path d="M24.065 7.066a12.55 12.55 0 0 1-5.132 17 12.498 12.498 0 0 1-7.387 1.406 12.541 12.541 0 0 1-9.612-6.54c-3.277-6.11-.98-13.721 5.132-16.998a12.521 12.521 0 0 1 11.124-.368 12.501 12.501 0 0 1 5.875 5.5Z"/></mask><path fill="url(#b)" d="m18.933 24.065-.473-.881.886 1.792-.413-.911Zm-.743-22.5-.448.895.954-1.757-.506.863Zm7.352 12.051 1 .04-1.998-.1.998.06ZM11.604.517 11.54-.48l-.933.06-.002.935 1 .002ZM7.538 2.815c.847-.454 2.429-1.048 4.304-1.268 1.87-.219 3.964-.058 5.9.913l.896-1.788C16.26-.521 13.746-.69 11.61-.44c-2.13.25-3.953.921-5.017 1.491l.945 1.763Zm17.005 10.76c-.087 2.146-1.447 7.123-6.083 9.609l.945 1.762c5.481-2.939 7.032-8.729 7.136-11.29l-1.998-.08ZM10.605.516l-.06 24.955 2 .004.06-24.954-2-.005Zm1.064 1c.666-.043 1.8-.047 2.975.087 1.201.136 2.318.403 3.04.826L18.697.703C17.605.063 16.148-.24 14.87-.386a19.935 19.935 0 0 0-3.33-.094l.13 1.995Zm12.875 12.04c-.07 1.152-.463 3.074-1.416 4.957-.949 1.877-2.418 3.65-4.608 4.642l.826 1.822c2.721-1.234 4.478-3.409 5.567-5.561 1.085-2.145 1.541-4.335 1.627-5.738l-1.996-.122ZM18.19 1.565l.826-1.821-.826 1.822Zm7.352 12.051 1.997.1-1.997-.1ZM11.604.517l-.221-1.987.222 1.987Zm-.058 24.955-.233 1.986.233-1.986Zm-7.85-7.484C.941 12.85 2.873 6.45 8.011 3.696L6.12.171C-.964 3.97-3.63 12.793.17 19.878l3.525-1.89Zm13.669-14.6a10.5 10.5 0 0 1 4.937 4.623l3.525-1.89a14.5 14.5 0 0 0-6.811-6.377l-1.651 3.643Zm4.937 4.623a10.497 10.497 0 0 1 1.242 5.505l3.995.2a14.497 14.497 0 0 0-1.712-7.595l-3.525 1.89Zm1.242 5.505a10.55 10.55 0 0 1-5.556 8.786l1.89 3.526c4.668-2.504 7.415-7.189 7.662-12.112l-3.995-.2ZM8.011 3.696a10.522 10.522 0 0 1 3.815-1.19l-.443-3.976c-1.795.2-3.58.739-5.262 1.641l1.89 3.525Zm3.815-1.19a10.593 10.593 0 0 1 5.539.881l1.65-3.643a14.594 14.594 0 0 0-7.632-1.214l.443 3.975Zm6.162 19.796a10.498 10.498 0 0 1-6.209 1.184l-.466 3.972c2.856.336 5.842-.17 8.565-1.63l-1.89-3.526Zm-6.209 1.184a10.542 10.542 0 0 1-8.083-5.498l-3.525 1.89a14.542 14.542 0 0 0 11.142 7.58l.466-3.972Z" mask="url(#c)"/></g><defs><linearGradient id="b" x1=".914" x2="27.354" y1="11.338" y2="12.998" gradientUnits="userSpaceOnUse"><stop offset=".288" stop-color="#fff"/><stop offset=".78" stop-color="#fff" stop-opacity="0"/></linearGradient><clipPath id="a"><path fill="#fff" d="M-186-2791h1366V204H-186z"/></clipPath></defs></svg>