<svg xmlns="http://www.w3.org/2000/svg" width="20" height="20" fill="none"><path fill="#E5E5E5" d="M0 0h20v20H0z"/><g clip-path="url(#a)"><path fill="#fff" d="M-100-34h1366v2995H-100z"/><path fill="#FDFDFB" d="M-100-34h1366v855H-100z"/><mask id="c" fill="#fff"><path d="M18.45 5.458a9.592 9.592 0 0 1-3.923 12.993 9.553 9.553 0 0 1-5.645 1.075A9.597 9.597 0 0 1 5.458 1.535a9.57 9.57 0 0 1 8.502-.28 9.555 9.555 0 0 1 4.49 4.203Z"/></mask><path fill="url(#b)" d="m14.528 18.451-.236-.44.442.895-.206-.455ZM13.96 1.254l-.224.447.477-.878-.253.431Zm5.62 9.21.5.021-1-.05.5.03ZM8.927.455l-.033-.5-.466.03-.001.468.5.001ZM5.694 1.975c.676-.362 1.917-.827 3.384-.998 1.464-.172 3.12-.048 4.658.723l.448-.894c-1.76-.882-3.625-1.01-5.222-.823-1.595.187-2.956.69-3.74 1.11l.472.882Zm13.386 8.469c-.069 1.694-1.133 5.605-4.788 7.565l.472.882c4.078-2.187 5.238-6.505 5.315-8.407l-.999-.04ZM8.427.452l-.045 19.073 1 .003L9.427.454l-1-.002Zm.532.5a13.983 13.983 0 0 1 2.321.067c.928.105 1.827.314 2.428.667l.505-.863c-.785-.46-1.853-.688-2.82-.798a14.974 14.974 0 0 0-2.499-.07l.065.997Zm10.122 9.482c-.056.914-.365 2.418-1.11 3.892-.744 1.471-1.905 2.879-3.65 3.67l.413.91c2.01-.91 3.315-2.52 4.129-4.128.812-1.605 1.152-3.244 1.216-4.283l-.998-.06Zm-5.12-9.18.412-.91-.413.91Zm5.619 9.21.998.05-.998-.05ZM8.927.455l-.11-.995.11.994Zm-.045 19.072-.117.994.117-.994Zm-6.466-5.47A8.597 8.597 0 0 1 5.93 2.416L4.985.655C-.173 3.42-2.112 9.844.654 15.001l1.762-.945Zm11.132-11.89a8.555 8.555 0 0 1 4.021 3.765l1.763-.946A10.555 10.555 0 0 0 14.373.343l-.825 1.822Zm4.021 3.765a8.553 8.553 0 0 1 1.012 4.484l1.997.1c.094-1.86-.303-3.77-1.246-5.53l-1.763.946Zm1.012 4.484a8.592 8.592 0 0 1-4.526 7.155l.946 1.762a10.592 10.592 0 0 0 5.577-8.817l-1.997-.1ZM5.93 2.417a8.57 8.57 0 0 1 3.107-.97L8.816-.541A10.57 10.57 0 0 0 4.986.654l.944 1.763Zm3.107-.97a8.625 8.625 0 0 1 4.51.718l.825-1.822A10.626 10.626 0 0 0 8.816-.54l.222 1.988Zm5.017 16.123A8.553 8.553 0 0 1 9 18.533l-.234 1.987a10.553 10.553 0 0 0 6.236-1.188l-.946-1.762ZM9 18.533a8.586 8.586 0 0 1-6.583-4.477L.654 15a10.586 10.586 0 0 0 8.111 5.519L9 18.533Z" mask="url(#c)"/></g><defs><linearGradient id="b" x1=".756" x2="20.965" y1="8.723" y2="9.992" gradientUnits="userSpaceOnUse"><stop offset=".288" stop-color="#555248"/><stop offset=".78" stop-color="#1B1A17" stop-opacity="0"/></linearGradient><clipPath id="a"><path fill="#fff" d="M-100-34h1366v2995H-100z"/></clipPath></defs></svg>